<svg width="339" height="41" viewBox="0 0 339 41" fill="none" xmlns="http://www.w3.org/2000/svg">
<path d="M17.1364 40L10.7524 27.808H10.7044V40H0.0484375V6.016H15.8884C18.6404 6.016 20.9924 6.512 22.9444 7.504C24.8964 8.464 26.3524 9.792 27.3124 11.488C28.3044 13.152 28.8004 15.04 28.8004 17.152C28.8004 19.424 28.1604 21.44 26.8804 23.2C25.6324 24.96 23.8244 26.224 21.4564 26.992L28.8484 40H17.1364ZM10.7044 20.704H14.9284C15.9524 20.704 16.7204 20.48 17.2324 20.032C17.7444 19.552 18.0004 18.816 18.0004 17.824C18.0004 16.928 17.7284 16.224 17.1844 15.712C16.6724 15.2 15.9204 14.944 14.9284 14.944H10.7044V20.704ZM58.4127 26.224C58.4127 26.96 58.3647 27.664 58.2687 28.336H41.1327C41.2927 30.672 42.2687 31.84 44.0607 31.84C45.2127 31.84 46.0447 31.312 46.5567 30.256H57.8367C57.4527 32.176 56.6367 33.904 55.3887 35.44C54.1727 36.944 52.6207 38.144 50.7327 39.04C48.8767 39.904 46.8287 40.336 44.5887 40.336C41.9007 40.336 39.5007 39.776 37.3887 38.656C35.3087 37.536 33.6767 35.936 32.4927 33.856C31.3407 31.744 30.7647 29.28 30.7647 26.464C30.7647 23.648 31.3407 21.2 32.4927 19.12C33.6767 17.008 35.3087 15.392 37.3887 14.272C39.5007 13.152 41.9007 12.592 44.5887 12.592C47.2767 12.592 49.6607 13.152 51.7407 14.272C53.8527 15.36 55.4847 16.928 56.6367 18.976C57.8207 21.024 58.4127 23.44 58.4127 26.224ZM47.6127 23.68C47.6127 22.784 47.3247 22.112 46.7487 21.664C46.1727 21.184 45.4527 20.944 44.5887 20.944C42.7007 20.944 41.5967 21.856 41.2767 23.68H47.6127ZM60.3428 26.464C60.3428 23.616 60.8228 21.152 61.7828 19.072C62.7748 16.96 64.1188 15.36 65.8148 14.272C67.5108 13.152 69.4148 12.592 71.5268 12.592C73.2868 12.592 74.8068 12.96 76.0868 13.696C77.3668 14.4 78.3428 15.376 79.0148 16.624V12.928H89.6228V40H79.0148V36.304C78.3428 37.552 77.3668 38.544 76.0868 39.28C74.8068 39.984 73.2868 40.336 71.5268 40.336C69.4148 40.336 67.5108 39.792 65.8148 38.704C64.1188 37.584 62.7748 35.984 61.7828 33.904C60.8228 31.792 60.3428 29.312 60.3428 26.464ZM79.0148 26.464C79.0148 25.024 78.6468 23.904 77.9108 23.104C77.1748 22.304 76.2308 21.904 75.0788 21.904C73.9268 21.904 72.9828 22.304 72.2468 23.104C71.5108 23.904 71.1428 25.024 71.1428 26.464C71.1428 27.904 71.5108 29.024 72.2468 29.824C72.9828 30.624 73.9268 31.024 75.0788 31.024C76.2308 31.024 77.1748 30.624 77.9108 29.824C78.6468 29.024 79.0148 27.904 79.0148 26.464ZM105.064 4.48V40H94.4078V4.48H105.064ZM146.021 12.736C149.477 12.736 152.149 13.776 154.037 15.856C155.957 17.936 156.917 20.752 156.917 24.304V40H146.309V25.648C146.309 24.496 145.957 23.6 145.253 22.96C144.581 22.288 143.669 21.952 142.517 21.952C141.333 21.952 140.405 22.288 139.733 22.96C139.061 23.6 138.725 24.496 138.725 25.648V40H128.117V25.648C128.117 24.496 127.765 23.6 127.061 22.96C126.389 22.288 125.477 21.952 124.325 21.952C123.141 21.952 122.213 22.288 121.541 22.96C120.869 23.6 120.533 24.496 120.533 25.648V40H109.877V12.928H120.533V16.576C121.301 15.424 122.341 14.496 123.653 13.792C124.997 13.088 126.565 12.736 128.357 12.736C130.309 12.736 132.037 13.168 133.541 14.032C135.045 14.864 136.245 16.048 137.141 17.584C138.133 16.176 139.397 15.024 140.933 14.128C142.469 13.2 144.165 12.736 146.021 12.736ZM202.381 6.016V40H191.773V23.056L186.541 40H177.421L172.189 23.056V40H161.533V6.016H174.589L182.077 26.416L189.373 6.016H202.381ZM220.053 40.336C217.333 40.336 214.885 39.776 212.709 38.656C210.533 37.536 208.821 35.936 207.573 33.856C206.357 31.744 205.749 29.28 205.749 26.464C205.749 23.648 206.357 21.2 207.573 19.12C208.821 17.008 210.533 15.392 212.709 14.272C214.885 13.152 217.333 12.592 220.053 12.592C222.773 12.592 225.221 13.152 227.397 14.272C229.573 15.392 231.269 17.008 232.485 19.12C233.733 21.2 234.357 23.648 234.357 26.464C234.357 29.28 233.733 31.744 232.485 33.856C231.269 35.936 229.573 37.536 227.397 38.656C225.221 39.776 222.773 40.336 220.053 40.336ZM220.053 31.12C221.045 31.12 221.877 30.736 222.549 29.968C223.221 29.168 223.557 28 223.557 26.464C223.557 24.928 223.221 23.776 222.549 23.008C221.877 22.208 221.045 21.808 220.053 21.808C219.061 21.808 218.229 22.208 217.557 23.008C216.885 23.776 216.549 24.928 216.549 26.464C216.549 28 216.869 29.168 217.509 29.968C218.181 30.736 219.029 31.12 220.053 31.12ZM251.433 29.872L255.753 12.928H267.081L258.057 40H244.761L235.737 12.928H247.065L251.433 29.872ZM275.284 10.768C273.428 10.768 271.94 10.272 270.82 9.28C269.7 8.288 269.14 7.04 269.14 5.536C269.14 4 269.7 2.736 270.82 1.744C271.94 0.719997 273.428 0.207997 275.284 0.207997C277.108 0.207997 278.58 0.719997 279.7 1.744C280.82 2.736 281.38 4 281.38 5.536C281.38 7.04 280.82 8.288 279.7 9.28C278.58 10.272 277.108 10.768 275.284 10.768ZM280.564 12.928V40H269.908V12.928H280.564ZM311.585 26.224C311.585 26.96 311.537 27.664 311.441 28.336H294.305C294.465 30.672 295.441 31.84 297.233 31.84C298.385 31.84 299.217 31.312 299.729 30.256H311.009C310.625 32.176 309.809 33.904 308.561 35.44C307.345 36.944 305.793 38.144 303.905 39.04C302.049 39.904 300.001 40.336 297.761 40.336C295.073 40.336 292.673 39.776 290.561 38.656C288.481 37.536 286.849 35.936 285.665 33.856C284.513 31.744 283.937 29.28 283.937 26.464C283.937 23.648 284.513 21.2 285.665 19.12C286.849 17.008 288.481 15.392 290.561 14.272C292.673 13.152 295.073 12.592 297.761 12.592C300.449 12.592 302.833 13.152 304.913 14.272C307.025 15.36 308.657 16.928 309.809 18.976C310.993 21.024 311.585 23.44 311.585 26.224ZM300.785 23.68C300.785 22.784 300.497 22.112 299.921 21.664C299.345 21.184 298.625 20.944 297.761 20.944C295.873 20.944 294.769 21.856 294.449 23.68H300.785ZM327.003 40.336C324.443 40.336 322.171 39.92 320.187 39.088C318.235 38.256 316.683 37.104 315.531 35.632C314.379 34.16 313.723 32.496 313.563 30.64H323.787C323.915 31.44 324.251 32.032 324.795 32.416C325.371 32.8 326.091 32.992 326.955 32.992C327.499 32.992 327.931 32.88 328.251 32.656C328.571 32.4 328.731 32.096 328.731 31.744C328.731 31.136 328.395 30.704 327.723 30.448C327.051 30.192 325.915 29.904 324.315 29.584C322.363 29.2 320.747 28.784 319.467 28.336C318.219 27.888 317.115 27.12 316.155 26.032C315.227 24.944 314.763 23.44 314.763 21.52C314.763 19.856 315.195 18.352 316.059 17.008C316.955 15.632 318.267 14.56 319.995 13.792C321.723 12.992 323.819 12.592 326.283 12.592C329.931 12.592 332.779 13.488 334.827 15.28C336.907 17.072 338.155 19.408 338.571 22.288H329.115C328.955 21.552 328.619 20.992 328.107 20.608C327.595 20.192 326.907 19.984 326.043 19.984C325.499 19.984 325.083 20.096 324.795 20.32C324.507 20.512 324.363 20.816 324.363 21.232C324.363 21.776 324.699 22.192 325.371 22.48C326.043 22.736 327.115 23.008 328.587 23.296C330.539 23.68 332.187 24.112 333.531 24.592C334.875 25.072 336.043 25.904 337.035 27.088C338.027 28.24 338.523 29.84 338.523 31.888C338.523 33.488 338.059 34.928 337.131 36.208C336.203 37.488 334.859 38.496 333.099 39.232C331.371 39.968 329.339 40.336 327.003 40.336Z" fill="#FFF9F9"/>
</svg>
